# xmcd
#
# Track frame offsets:
#	150
#	14025
#	27437
#	42025
#	53762
#	66062
#	78912
#	93100
#	109225
#	123850
#	137862
#	149287
#	160750
#	175825
#	189137
#	203012
#	216650
#	231662
#	245900
#	262262
#	276825
#	292562
#	307612
#	322812
#
# Disc length: 4508
#
# Revision: 1
# Processed by: cddbd v1.5.1PL0 Copyright (c) Steve Scherf et al.
# Submitted via: CDex 1.51
# Normalized: r0:TDELIM( - )
#
DISCID=55119a18
DTITLE=Various Artist - The Blues Story 1
DYEAR=1994
DGENRE=Blues
TTITLE0=Blind Lemon Jefferson - Black Snake Moan
TTITLE1=Blind Lemon Jefferson - Rabbit Foot Blues
TTITLE2=Sleepy John Estes - Lawyer Clark Blues
TTITLE3=Sleepy John Estes - Little Laura Blues
TTITLE4=Memphis Jug Band - Cocaine Habit Blues
TTITLE5=Leroy Carr - Midnight Hour Blues
TTITLE6=Leroy Carr - Blues Before Sunrise
TTITLE7=Leadbelly - Blue Snake Moan
TTITLE8=Leadbelly - Match Box Blues
TTITLE9=Robert Johnson - Crossroads Blues
TTITLE10=Robert Johnson - Walkin' Blues
TTITLE11=Ma Rainey - c.c. Rider
TTITLE12=Ma Rainey - Don't Fish In My Sea
TTITLE13=Bessie Smith - Yellow Dog Blues
TTITLE14=Bessie Smith - Blackwater Blues
TTITLE15=Bessie Smith - Dyin' By The Hour
TTITLE16=Chippie Hill - Trouble In Mind
TTITLE17=Chippie Hill - Sports Model Mind
TTITLE18=Cleo Gibson - Nothing But Blues
TTITLE19=Elzadie Robinson - St. Louis Cyclone Blues
TTITLE20=Elzadie Robinson - Santa Claus Crave
TTITLE21=Ida Cox - 'Fore Day Creep
TTITLE22=Unknown - Track 23
TTITLE23=Unknown - Track 24
EXTD=YEAR: 1994
EXTT0=
EXTT1=
EXTT2=
EXTT3=
EXTT4=
EXTT5=
EXTT6=
EXTT7=
EXTT8=
EXTT9=
EXTT10=
EXTT11=
EXTT12=
EXTT13=
EXTT14=
EXTT15=
EXTT16=
EXTT17=
EXTT18=
EXTT19=
EXTT20=
EXTT21=
EXTT22=
EXTT23=
PLAYORDER=
